<?xml version="1.0"?>
<svg xmlns="http://www.w3.org/2000/svg" xmlns:xlink="http://www.w3.org/1999/xlink" xmlns:svgjs="http://svgjs.com/svgjs" version="1.1" width="512" height="512" x="0" y="0" viewBox="0 0 512.186 512.186" style="enable-background:new 0 0 512 512" xml:space="preserve"><g><g xmlns="http://www.w3.org/2000/svg"><g><path d="m241.969 483.017h27.29c4.143 0 7.5-3.357 7.5-7.5s-3.357-7.5-7.5-7.5h-27.29c-4.143 0-7.5 3.357-7.5 7.5s3.357 7.5 7.5 7.5z" fill="#000000" data-original="#000000" style=""/><circle cx="255.614" cy="36.886" r="9.29" fill="#000000" data-original="#000000" style=""/><path d="m393.343 366.26c4.143 0 7.5-3.357 7.5-7.5v-323.652c-.041-19.048-16.583-35.108-36.126-35.108-.024 0-.052 0-.077 0h-219.145c-9.416.02-18.141 3.853-24.567 10.792-6.201 6.696-9.605 15.555-9.585 24.928v441.832c.042 19.437 15.488 34.634 35.163 34.634h.083 219.144c9.399-.02 18.228-3.699 24.858-10.359 6.632-6.66 10.272-15.504 10.252-24.886v-83.598c0-4.143-3.357-7.5-7.5-7.5s-7.5 3.357-7.5 7.5v48.398l-259.5.562v-371.384l259.5-.562v288.403c0 4.142 3.357 7.5 7.5 7.5zm-7.5 90.481v20.216c.012 5.392-2.077 10.465-5.881 14.286-3.805 3.82-8.869 5.931-14.245 5.942h-219.145c-.017 0-.031 0-.048 0-11.296 0-20.157-8.63-20.182-19.65v-20.232zm-259.5-400.822v-20.216c-.012-5.586 1.974-10.813 5.591-14.719 3.563-3.849 8.391-5.974 13.577-5.984h219.146.046c11.439 0 21.117 9.214 21.141 20.125v20.232z" fill="#000000" data-original="#000000" style=""/><g><g><path d="m281.013 352.287c-.013 0-.025 0-.037 0-4.143.021-7.483 3.395-7.464 7.536l.11 22.827c.029 9.616-7.771 17.464-17.388 17.493-.018 0-.034 0-.052 0-7.636 0-14.499-5.09-16.702-12.394-1.196-3.965-5.382-6.212-9.347-5.015-3.966 1.196-6.211 5.381-5.015 9.347 4.1 13.591 16.864 23.062 31.063 23.062h.097c17.889-.055 32.397-14.651 32.343-32.552l-.11-22.841c-.02-4.129-3.373-7.463-7.498-7.463z" fill="#000000" data-original="#000000" style=""/><path d="m231.092 359.359h.023c4.142-.013 7.49-3.38 7.478-7.522l-.029-9.795c-.015-4.659 1.786-9.044 5.07-12.348 3.284-3.305 7.659-5.132 12.318-5.146h.056c4.1 0 7.934 1.376 11.089 3.981 3.194 2.636 7.921 2.187 10.559-1.008s2.187-7.921-1.008-10.559c-5.794-4.784-13.121-7.415-20.643-7.415-.032 0-.065 0-.099 0-8.665.025-16.802 3.425-22.91 9.57-6.109 6.146-9.459 14.303-9.433 22.968l.029 9.795c.013 4.137 3.369 7.479 7.5 7.479z" fill="#000000" data-original="#000000" style=""/><path d="m248.593 351.859v20.974c0 4.143 3.357 7.5 7.5 7.5s7.5-3.357 7.5-7.5v-20.974c0-4.143-3.357-7.5-7.5-7.5s-7.5 3.358-7.5 7.5z" fill="#000000" data-original="#000000" style=""/><path d="m346.427 163.58-79.319-62.748c-6.412-5.072-15.37-5.076-21.784 0l-79.696 63.045c-9.799 7.751-12.489 21.763-6.26 32.592 3.685 6.405 9.961 10.881 17.218 12.278 1.599.309 3.209.46 4.811.46 3.369 0 6.692-.686 9.788-1.982v40.141c0 10.21 8.307 18.517 18.517 18.517h10.643c4.143 0 7.5-3.357 7.5-7.5s-3.357-7.5-7.5-7.5h-10.645c-1.939 0-3.517-1.577-3.517-3.517v-50.773l50.031-39.498 50.032 39.504v50.767c0 1.939-1.578 3.517-3.518 3.517h-47.448c-4.143 0-7.5 3.357-7.5 7.5s3.357 7.5 7.5 7.5h47.449c10.211 0 18.518-8.307 18.518-18.517v-40.129c4.466 1.866 9.421 2.442 14.276 1.57 7.152-1.282 13.421-5.57 17.199-11.765 6.464-10.594 3.639-25.604-6.295-33.462zm-6.51 25.65c-1.567 2.57-4.068 4.279-7.041 4.813-2.969.53-5.912-.204-8.281-2.075l-63.732-50.314c-2.725-2.15-6.57-2.15-9.295 0l-63.732 50.314c-2.411 1.902-5.399 2.632-8.414 2.05-3.016-.58-5.521-2.366-7.052-5.029-2.551-4.435-1.449-10.173 2.564-13.348l79.696-63.045c.467-.369 1.026-.554 1.585-.554.56 0 1.119.185 1.586.554l79.319 62.748s0 0 .001.001c3.978 3.145 5.311 9.763 2.796 13.885z" fill="#000000" data-original="#000000" style=""/></g></g></g></g></g></svg>
